<svg width="120.00000000000001" height="105" xmlns="http://www.w3.org/2000/svg">

 <g>
  <title>background</title>
  <rect fill="none" id="canvas_background" height="107" width="122" y="-1" x="-1"/>
 </g>
 <g>
  <title>Layer 1</title>
  <g id="svg_1">
   <path id="svg_2" d="m32.499998,80.65l0,-6.1c3.8,0 5.2,-0.2 5.9,4.5l0.4,0l0,-5.2l-10.5,0l0,0.7l1.8,0l0,13.5l-2,0l0,0.7l10.8,0l0,-5.5l-0.5,0c-0.5,4.2 -1.6,4.8 -4.6,4.8l-1.4,0l0,-6.5l0.8,0c1.3,0 2.1,0.8 2.4,3.1l0.5,0l0,-6.8c0,0 -0.5,0 -0.5,0c0,0 -0.1,2.9 -2.4,2.9l-0.7,0l0,-0.1z" fill="#C5281C"/>
   <path id="svg_3" d="m28.199998,80.85l-5.9,0l0,0.7l2,0l0,4.8c-0.3,1.2 -2.2,1.7 -2.7,1.7c-3.8,0 -3.5,-5.5 -3.5,-7c0,-1.3 -0.1,-7 3.5,-7c2.6,0 3.9,2.5 4.4,4.8l0.4,0c0,-0.9 0,-5.4 0,-5.4c0,0 -1.8,1.3 -1.8,1.2c0,0 -0.8,-1.2 -3.1,-1.2c-4.4,0 -6.1,4.4 -6.1,7.5c0,2.8 1.3,7.7 6.1,7.7c1.5,0 2.5,-0.8 3.1,-1.6c0,0 1.9,1.5 1.9,1.5l0,-7.1l1.6,0l0,-0.6l0.1,0z" fill="#C5281C"/>
   <path id="svg_4" d="m97.099998,83.15c-0.5,4.2 -1.6,4.8 -4.6,4.8l-0.2,0l0,-13.4l1.9,0l0,-0.7l-6.2,0l0,0.7l1.9,0l0,13.5l-1.5,0l-5.5,-14.6l-0.8,0c0,0 -4.6,13.2 -4.6,13.3c0,0 -0.3,1.1 -1.1,1.3c-0.7,0 -0.6,-0.3 -0.6,-0.5l0,-2.6c0,-0.7 -0.1,-2.2 -0.7,-2.9c-0.8,-0.8 -2.1,-0.8 -2.1,-0.9c0,0 3.4,-0.7 3.4,-3.9c0,-2.3 -1.6,-3.4 -4.2,-3.5l-7.4,0l0,0.7l1.9,0l0,13.5l-1.9,0l0,0.7l6.1,0l0,-0.7l-1.9,0l0,-6.5l2.5,0c4.4,0.4 -0.8,7.2 5,7.2l3.6,0l0,-0.7c-0.2,0 -1.5,0 -1.6,-0.9c-0.1,-0.7 0.9,-3.1 0.9,-3.1l5,0c0,0 1.5,4 1.6,4l-1.7,0l0,0.7l13.5,0l0,-5.5l-0.7,0zm-25.7,-2.4l-2.4,0l0,-6.2l3.1,0c1.8,0.3 1.9,2.4 1.9,3c0,1.6 -0.7,3.2 -2.6,3.2m8.4,2.6l2.2,-6.4l2.3,6.4l-4.5,0z" fill="#C5281C"/>
   <path id="svg_5" d="m57.399998,74.45c3.8,0 5.3,-0.2 5.9,4.5l0.4,0l0,-5.2l-15.2,0l0,0.7l0.4,0c0.5,0 1.8,0 1.9,1.2l0,0l0,8.6l-7.1,-10.5l-3.9,0l0,0.7l0.6,0c0.8,0 1.8,0 1.9,1.2l0,11c0,1.1 -1.6,1.5 -2.3,1.5l0,0l0,0.5l5.3,0l0,-0.5c-0.7,0 -2.3,-0.4 -2.3,-1.5l0,-9.7c2.8,4 8.1,11.7 8.2,11.7l0.3,0l0,-13c0.1,-1.1 1.3,-1.2 1.9,-1.2l1.7,0l0,13.5l-2,0l0,0.7l10.8,0l0,-5.5l-0.5,0c-0.5,4.2 -1.6,4.8 -4.6,4.8l-1.4,0l0,-6.5l0.8,0c1.3,0 2.1,0.8 2.4,3.1l0.5,0l0,-6.8c0,0 -0.5,0 -0.5,0c0,0 -0.1,2.9 -2.4,2.9l-0.7,0l0,-6.2l-0.1,0z" fill="#C5281C"/>
   <polygon id="svg_6" points="104.49999237060547,74.54999732971191 104.49999237060547,73.74999809265137 98.39999389648438,73.74999809265137 98.39999389648438,74.54999732971191 100.29998779296875,74.54999732971191 100.29998779296875,87.94999504089355 98.39999389648438,87.94999504089355 98.39999389648438,88.64999961853027 104.49999237060547,88.64999961853027 104.49999237060547,87.94999504089355 102.49999237060547,87.94999504089355 102.49999237060547,74.54999732971191 " fill="#C5281C"/>
   <path stroke="null" id="svg_7" d="m88.399998,64.55l1.9,-0.7l0,0c2.7,-1.1 3.1,-1.8 2.9,-3.6l0,-7.2c2,5.2 4,8.8 7.9,8.8c0.5,0 1.1,-0.1 1.7,-0.2l1.5,-0.3l-1.1,-1.2c-0.7,-0.7 -1,-1.3 -1.4,-2c-0.2,-0.3 -0.3,-0.6 -0.5,-0.9c-0.9,-1.5 -3.1,-2 -4.9,-1.2c-0.8,-1.6 -1.6,-3.7 -2.6,-6.3l-0.2,-0.5c-0.2,-0.4 -0.3,-0.8 -0.5,-1.2l0,-0.1l0,0c-0.6,-1.4 -1.3,-2.7 -2,-4c-0.7,-1.2 -1.4,-2.2 -2.2,-3.1c-2.1,-2.4 -4.8,-3.9 -8.1,-4.5c-2.3,-0.4 -3.9,-0.5 -6,-0.6c-0.4,0 -0.9,0 -1.3,-0.1c-0.9,-0.1 -2.8,-0.2 -4.7,-0.4c-1.3,-0.1 -2.5,-0.2 -3.5,-0.3c0.1,-0.3 0.1,-0.6 0.1,-0.9c0,-0.4 0,-0.8 -0.1,-1.1l13.2,0c3.4,0 5.9,-1.5 7.3,-4.5c3.4,0 5.8,-1.6 7.3,-4.5l0.5,0c3.5,0 6,-1.6 7.5,-4.8l0.5,-0.9l-44.6,0c-2.9,0 -5.4,1.9 -6.4,4.9l0,0.1c-0.8,-2.1 -2.1,-3.9 -3.9,-5c-2.5,-1.5 -5.3,-2 -7.5,-1.3c-0.7,0.2 -1.5,0.5 -2.1,0.9c-0.5,0.4 -1.3,0.9 -1.8,1.6c-0.6,0.7 -1.1,1.6 -1.5,2.4c-0.3,0.2 -0.5,0.4 -0.6,0.6l-0.5,1l0,0.1c-0.6,1.4 -1.4,2.4 -2,3.2c-0.6,0.7 -0.6,1.4 -0.6,1.8c0.1,0.5 0.3,0.9 0.6,1.2l0,0c-0.2,0.3 -0.3,0.7 -0.3,1c0,1.2 1,2.1 2.3,2.1c0.9,0 1.7,-0.4 2.5,-1c0.3,-0.2 1.2,-0.8 1.5,-0.8c0.4,0 0.7,0.3 0.7,0.7c0,1 -1.2,1.5 -2.1,1.5l-1.8,0.2c-1.3,0.1 -1.9,0.8 -1.9,1.4c0,0.6 0.3,1 0.5,1.2l0.1,0.1l0.5,0.4l-2.1,3.2c-1.4,-1.3 -3,-2 -4.4,-2.1c-0.9,0 -1.7,0.2 -2.3,0.8c-0.2,0.2 -0.3,0.3 -0.4,0.5l0,0c-1.5,0 -2.7,0.8 -3.3,1.7c-0.7,1 -0.4,2.7 0.4,4l-5,1.4l0,23.2l89,0l0,-4.6l-16.2,0l0,-0.1zm11.5,-6.3c0.2,0.3 0.3,0.6 0.5,0.8c0.2,0.3 0.4,0.6 0.6,1c-1.4,-0.1 -2.5,-0.9 -3.4,-2.3c0.8,-0.4 1.9,-0.1 2.3,0.5m-19.3,-19.8c2.9,0.5 5.2,1.8 7,3.8c0.4,0.4 0.7,0.9 1.1,1.4c-4.8,-0.6 -6.5,-1.3 -9.2,-5.4c0.4,0 0.7,0.1 1.1,0.2m-2.1,-7l-9.1,0c0.8,-0.7 1.4,-1.6 1.9,-2.6l12.3,0c-1,1.8 -2.7,2.6 -5.1,2.6m7.2,-4.4l-9.1,0c0.8,-0.7 1.5,-1.6 2,-2.7l12.3,0c-1,1.8 -2.7,2.7 -5.2,2.7m0.7,-6.9l12.2,0c-1.2,1.6 -2.8,2.4 -5.1,2.4l-9.1,0c0.8,-0.7 1.5,-1.5 2,-2.4m-49.6,0.4c0.3,-0.4 0.8,-0.8 1.3,-1.2c0.4,-0.3 1,-0.6 1.6,-0.7c0.9,-0.2 1.9,-0.2 2.9,0l-3.3,2c-0.4,0 -0.8,-0.1 -1.2,-0.1c-0.6,0 -1.1,0 -1.5,0.1c0.1,0 0.1,0 0.2,-0.1m-3.8,14.4c0,-0.1 0.1,-0.2 0.2,-0.2l1.6,0.1c1.9,-0.1 3.9,-0.9 4.1,-2.9c0,-1.4 -1,-2.7 -2.3,-2.7c-0.7,0 -1.6,0.5 -2.5,1.1c-0.6,0.4 -1.1,0.7 -1.4,0.7c-0.2,0 -0.4,-0.2 -0.4,-0.3c0,0 0,0 0,-0.1l1,-1.4l-0.9,-0.6c-0.2,-0.1 -0.5,-0.4 -0.5,-0.5c0,-0.1 0.1,-0.2 0.1,-0.3c0.4,-0.4 0.8,-0.9 1.2,-1.6c0.3,-0.4 0.4,-0.6 0.8,-0.6c0.4,0 0.8,0.3 0.8,0.8c0,0.3 0.3,0.5 0.7,0.5c0.4,0 0.6,-0.3 0.8,-0.5c0,0 0.9,-0.8 0.4,-1.2c-0.5,-0.4 -2.7,0.5 -2.1,-1.5l0.2,-0.3c0.2,-0.3 1.3,-1.1 3.4,-1.1c0.4,0 0.8,0 1.3,0.1l0.3,0l4.6,-2.8c0,0.1 0.1,0.2 0.1,0.2l0,0c0.2,1.4 -0.6,3 -2,3.8l-0.6,0.3l0.4,2.1c-1.2,0.4 -2,1.3 -2,2.4c0,0.4 0.1,0.9 0.2,1.4c0.1,0.7 0.3,1.4 0.3,2.1c0,2.2 -3,3.6 -5.5,3.5l-0.1,0c-0.1,0 -1.7,-0.1 -2.1,-0.4c-0.1,0.1 -0.1,0 -0.1,-0.1m-11.4,6.8c0.4,-0.6 1.2,-1 2.2,-0.9l0.8,0.1l0.3,-0.7c0.1,-0.2 0.2,-0.4 0.3,-0.5c0.2,-0.2 0.6,-0.3 1,-0.3c1.1,0 2.5,0.8 3.6,2c0.4,0.4 0.8,1 1.1,1.5c0.1,0.1 0.1,0.2 0.2,0.3c0.1,0.1 0.2,0.3 0.2,0.3c0,0.1 0.6,0.9 0.6,1c0.4,-0.5 0.8,-1.1 1.1,-1.6c0,0 0,-0.1 0,-0.1c-0.1,-0.2 -0.3,-0.5 -0.4,-0.7l-0.1,-0.1c0,0 0,0 0,0c0,0 -0.1,-0.1 -0.1,-0.2c-0.1,-0.2 -0.3,-0.5 -0.4,-0.6l2.4,-3.8c0.6,0.1 1.1,0.1 1.4,0.1l0.1,0c3.4,0 6.9,-2 6.9,-5.2l0,-0.1c0,-0.9 -0.2,-1.7 -0.3,-2.4c-0.1,-0.5 -0.2,-0.9 -0.2,-1.1c0,-0.4 0.5,-0.8 1.2,-0.8l1.1,0l-0.5,-2.8c1.5,-1.1 2.5,-3 2.4,-4.7c1.7,1.3 2.8,3.5 3,5.8c0.1,0.7 -0.1,1.6 -0.3,2.6l-0.1,0.4l0,0c-0.4,1.6 -1,3.3 -1.3,4.1l-0.3,0.7l0.7,0.4c1.2,0.7 2,1.2 2,2.8c0,1.9 -1.7,3.3 -3.3,3.6l-2.3,0.4l1.9,1.3c0.6,0.4 1,1.1 1,1.8c0,1.2 -1,2.1 -2.2,2.1l-0.7,0l-0.2,0.6c-0.7,2.2 -1.4,3.3 -3.8,3.6c0,-0.7 0,-1.4 0,-2.3c0,-0.2 0,-0.8 0,-1l-0.1,-2.1l-1.5,1.5c-0.5,0.5 -1.4,0.9 -2.4,1.1l0,-1.8l-10.5,-2.8l-3.7,1c-0.8,-0.8 -1,-2.2 -0.8,-2.5m-3,22.8l7.6,-2l7.6,2l-15.2,0zm16.2,-1.6l-8.7,-2.3l-8.7,2.3l0,-15.5l8.7,-2.3l8.7,2.3l0,15.5zm4.1,-3c-0.8,1.1 -0.9,2.7 -0.3,4.6l-1.9,0l0,-14.8c0.7,-0.1 1.4,-0.3 2.1,-0.6c0,0.6 -0.1,1.2 -0.2,1.8c0,0.2 -0.1,0.3 -0.1,0.5l-0.2,1.1l1.1,0c1.6,0 2.8,-0.3 3.8,-0.7l0,6.2c0,0.2 -0.1,0.3 -0.3,0.3l-0.3,0c-1.6,-0.1 -3,0.5 -3.7,1.6m20,0.4c-0.7,0.8 -1.3,2.1 -0.9,4.2l-11.3,0c1.2,-0.1 2.1,-0.4 2.7,-1c0.7,-0.8 0.8,-1.8 0.8,-2.6c0,-0.1 0.1,-0.3 0.7,-0.6l1,-0.4l-0.6,-0.9c-1,-1.5 -0.5,-4.7 -0.2,-6.5l0.1,0c3.8,0 6.3,-0.8 8.9,-1.6c0.7,-0.2 1.4,-0.4 2.1,-0.7l0,0c0,0 0.8,-0.2 1.8,-0.5l3.7,6.1l0,0.1c0.4,0.5 0.4,0.9 -0.3,1.6l-1.8,2l-3,-0.6l0,0c-1.3,-0.2 -2.8,0.4 -3.7,1.4m1,4.2c-0.3,-1.3 -0.2,-2.3 0.4,-3c0.6,-0.7 1.4,-0.8 2.1,-0.8l3.5,0.6l0.1,0l0.5,0l2.5,-2.7l0,0c0.4,-0.5 1.7,-2 0.4,-3.9l-3.3,-5.4c0.5,-0.1 1.1,-0.1 1.6,-0.1l0,0c0,0 1.7,0 3.5,1c0.2,0.5 0.6,1.2 0.9,2c0.7,1.4 1.6,3.2 1.8,3.9c0.1,0.2 0.3,0.9 -0.5,1.8l-6.3,6.7l-7.2,0l0,-0.1zm21.6,0l-12,0l5.1,-5.4c1,-1.1 1.4,-2.4 0.9,-3.6c-0.2,-0.7 -0.9,-2.1 -1.6,-3.6c2,0.9 5.1,1.8 11.4,2.3c0.8,0.1 1,0.3 1.1,1l0.3,2.7l-3.3,0.7c-1.1,0.2 -2,0.9 -2.4,2c-0.4,1.2 -0.2,2.6 0.5,3.9m1.3,-3.2c0.2,-0.5 0.5,-0.8 1,-0.9l4.9,-1.1l-0.4,-4.4l0,-0.1c-0.1,-0.6 -0.5,-2.3 -2.8,-2.5c-8.8,-0.7 -10.8,-2 -13,-3.4c0,0 0,0 0,0l0,0l-0.1,-0.1c-2.3,-1.5 -4.6,-1.5 -4.8,-1.5c-2.5,0 -5.6,1 -5.9,1.1c-0.8,0.2 -1.5,0.5 -2.2,0.7c-2.8,0.9 -5.1,1.7 -9.1,1.5l-0.7,0l-0.2,0.7c-0.1,0.5 -1.3,5 -0.2,7.8c-1,0.8 -1,1.6 -1,1.8c0,1 -0.2,1.2 -0.3,1.3c-0.5,0.5 -2,0.5 -3.3,0.5l0,0l-0.5,0l-0.3,0.4c-0.8,1.1 -2.5,1.4 -3.6,1.1c-0.5,-1.5 -0.5,-2.6 0,-3.3c0.6,-0.8 1.7,-0.9 2.2,-0.9l0.3,0c1.2,0 2.1,-1 2.1,-2.1l0,-7.9c0.4,-0.5 0.6,-1.2 0.9,-1.9c1.9,-0.3 3.4,-1.9 3.4,-3.9c0,-0.8 -0.2,-1.5 -0.6,-2.1c1.8,-0.9 3.3,-2.6 3.3,-4.9c0,-2.3 -1.2,-3.4 -2.3,-4c0.3,-0.9 0.8,-2.4 1.2,-4l1.5,-5.5c0.7,-2.2 2.5,-3.6 4.6,-3.6l27.2,0c-1.2,1.6 -2.8,2.4 -5.1,2.4l-16.3,0l-0.9,1.8l14.8,0c-1.2,1.8 -2.9,2.7 -5.3,2.7l-10.7,0l-0.9,1.8l9.5,0c-1.2,1.8 -2.8,2.6 -5.2,2.6l-5.8,0l-0.9,1.8l6.1,0c0.1,0.1 0.2,0.4 0.2,1.1c0,1.2 -1,2.1 -2.2,2.1c-0.4,0 -0.8,-0.1 -1.4,-0.4c-0.3,-0.1 -0.5,-0.2 -0.8,-0.3l-1.4,1.3c0.3,0.1 0.5,0.2 0.8,0.3l0,0c1.2,0.5 1.9,0.8 2.8,0.8c1.1,0 2.1,-0.5 2.9,-1.2c1,0.1 2.7,0.2 4.4,0.3c2,0.2 3.8,0.3 4.8,0.4c0.5,0 0.9,0 1.4,0.1c0.8,0 1.6,0.1 2.3,0.1c3.7,6 5.6,6.8 12.8,7.7c0.5,0.9 1,1.9 1.4,2.9l0,11.7l0,0.1c0,0.5 0,0.7 0,0.8c-0.3,0.3 -1.4,0.8 -1.7,0.9l-6.1,2.5c-0.8,-1.1 -1.1,-2.2 -0.8,-3.1" fill="#C5281C"/>
   <polygon id="svg_8" points="32.89999771118164,49.84999656677246 27.099998474121094,48.349998474121094 27.099998474121094,50.24999809265137 32.89999771118164,51.74999809265137 " fill="#C5281C"/>
   <polygon id="svg_9" points="19.39999771118164,51.74999809265137 25.199996948242188,50.24999809265137 25.199996948242188,48.349998474121094 19.39999771118164,49.84999656677246 " fill="#C5281C"/>
   <polygon id="svg_10" points="19.39999771118164,55.549997329711914 25.199996948242188,54.049997329711914 25.199996948242188,52.14999961853027 19.39999771118164,53.64999961853027 " fill="#C5281C"/>
   <polygon id="svg_11" points="32.89999771118164,53.64999961853027 27.099998474121094,52.14999961853027 27.099998474121094,54.049997329711914 32.89999771118164,55.549997329711914 " fill="#C5281C"/>
   <polygon id="svg_12" points="32.89999771118164,57.44999885559082 27.099998474121094,55.94999885559082 27.099998474121094,57.84999656677246 32.89999771118164,59.34999656677246 " fill="#C5281C"/>
   <polygon id="svg_13" points="19.39999771118164,59.34999656677246 25.199996948242188,57.84999656677246 25.199996948242188,55.94999885559082 19.39999771118164,57.44999885559082 " fill="#C5281C"/>
  </g>
 </g>
</svg>