<svg xmlns="http://www.w3.org/2000/svg" width="32" height="32" clip-rule="evenodd" style=""><rect id="backgroundrect" width="100%" height="100%" x="0" y="0" fill="none" stroke="none"/>
 <g style="">
  <title>background</title>
  <rect x="-1" y="-1" width="34" height="34" id="canvas_background" fill="none"/>
 </g>

 <g style="" class="currentLayer">
  <title>Layer 1</title>
  <path fill="#abecab" fill-opacity="1" stroke="null" stroke-opacity="1" stroke-width="1" stroke-dasharray="none" stroke-linejoin="miter" stroke-linecap="butt" stroke-dashoffset="" fill-rule="nonzero" opacity="1" marker-start="" marker-mid="" marker-end="" id="svg_2" d="M 12.571428571428562 26.979591836734688 C 12.571428571428562 26.979591836734688 8.897959183673464 26.979591836734688 8.897959183673464 26.979591836734688 C 8.897959183673464 26.979591836734688 8.08163265306122 20.448979591836732 8.08163265306122 20.448979591836732 C 8.08163265306122 20.448979591836732 5.387755102040806 18.408163265306115 5.387755102040806 18.408163265306115 C 5.387755102040806 18.408163265306115 5.551020408163261 15.469387755102034 5.551020408163261 15.469387755102034 C 5.551020408163261 15.469387755102034 7.8367346938775455 12.530612244897952 7.8367346938775455 12.530612244897952 C 7.8367346938775455 12.530612244897952 11.918367346938773 11.387755102040813 11.918367346938773 11.387755102040813 C 11.918367346938773 11.387755102040813 16.163265306122447 15.55102040816326 16.163265306122447 15.55102040816326 C 16.163265306122447 15.55102040816326 12.571428571428562 26.979591836734688 12.571428571428562 26.979591836734688 z" style="color: rgb(0, 0, 0);" class=""/><path d="m10,27l-3,0l0,-5.486c-1.827,-0.518 -3,-2.24 -3,-3.988c0,-0.585 0.129,-1.172 0.407,-1.716c-0.323,-1.661 0.657,-3.344 2.356,-3.881l0.018,-0.005c0.773,-1.102 2.057,-1.826 3.535,-1.898l5.666,-5.026l12.018,10.661l-1.33,1.493l-10.688,-9.482l-3.274,2.905c0.305,0.162 0.591,0.358 0.849,0.589l2.415,-2.142l9.026,7.989l0,9.987l-2.998,0l0,-7l-5,0l-0.008,7l-5.992,0l0,-6.061c0.546,-0.125 1.034,-0.463 1.317,-1.044c2.096,0.786 3.746,-2.273 1.82,-3.562c1.073,-1.237 0.188,-2.747 -1.208,-2.525c-0.673,-2.384 -4.178,-2.384 -4.851,0c-1.31,-0.235 -2.295,1.094 -1.385,2.291c-1.654,1.38 -0.162,4.084 1.872,3.473c0.214,0.74 0.794,1.2 1.435,1.362l0,6.066zm0.451,-10.678c1.493,-1.023 3.242,0.768 2.303,2.226c0.002,-1.473 -0.853,-2.282 -2.303,-2.226m-2.119,1.191c-0.668,-1.002 -0.34,-2.366 0.705,-2.968c0.589,-0.338 1.33,-0.369 1.953,-0.07c1.06,0.507 -2.743,-0.678 -2.658,3.038" id="svg_1" fill="#5bb25b" stroke="null" class="" fill-opacity="1"/>
 <path fill="#919191" fill-opacity="1" stroke="null" stroke-opacity="1" stroke-width="1" stroke-dasharray="none" stroke-linejoin="miter" stroke-linecap="butt" stroke-dashoffset="" fill-rule="nonzero" opacity="1" marker-start="" marker-mid="" marker-end="" id="svg_4" d="M 11.265306122448967 20.6938775510204 C 11.265306122448967 20.6938775510204 3.836734693877545 9.265306122448976 3.836734693877545 9.265306122448976" style="color: rgb(0, 0, 0);"/></g>
</svg>