<svg xmlns="http://www.w3.org/2000/svg" width="32" height="32" style=""><rect id="backgroundrect" width="100%" height="100%" x="0" y="0" fill="none" stroke="none"/>

 <g style="">
  <title>background</title>
  <rect fill="none" id="canvas_background" height="34" width="34" y="-1" x="-1"/>
 </g>
 <g style="" class="currentLayer">
  <title>Layer 1</title>
  <path fill="#e84141" fill-opacity="1" stroke="null" stroke-opacity="1" stroke-width="1" stroke-dasharray="none" stroke-linejoin="miter" stroke-linecap="butt" stroke-dashoffset="" fill-rule="nonzero" opacity="1" marker-start="" marker-mid="" marker-end="" id="svg_2" d="M 15.918367346938773 9.836734693877546 C 15.918367346938773 9.836734693877546 18.28571428571427 6.979591836734691 18.28571428571427 6.979591836734691 C 18.28571428571427 6.979591836734691 22.448979591836725 6.163265306122445 22.448979591836725 6.163265306122445 C 22.448979591836725 6.163265306122445 25.142857142857135 7.306122448979586 25.142857142857135 7.306122448979586 C 25.142857142857135 7.306122448979586 26.61224489795918 9.673469387755098 26.61224489795918 9.673469387755098 C 26.61224489795918 9.673469387755098 26.61224489795918 13.020408163265301 26.61224489795918 13.020408163265301 C 26.61224489795918 13.020408163265301 15.918367346938773 25.673469387755098 15.918367346938773 25.673469387755098 C 15.918367346938773 25.673469387755098 4.979591836734684 12.693877551020407 4.979591836734684 12.693877551020407 C 4.979591836734684 12.693877551020407 5.306122448979586 9.836734693877546 5.306122448979586 9.836734693877546 C 5.306122448979586 9.836734693877546 6.6122448979591795 7.632653061224484 6.6122448979591795 7.632653061224484 C 6.6122448979591795 7.632653061224484 9.714285714285701 6.4081632653061185 9.714285714285701 6.326530612244895 C 9.714285714285701 6.244897959183671 13.306122448979597 7.061224489795915 13.224489795918364 7.061224489795915 C 13.142857142857132 7.061224489795915 15.918367346938773 9.836734693877546 15.918367346938773 9.836734693877546 z" style="color: rgb(0, 0, 0);" class=""/><path stroke="null" fill="#ce2f2f" id="svg_1" d="m10.28,7c3.236,0.001 4.973,3.491 5.72,5.031c0.75,-1.547 2.469,-5.021 5.726,-5.021c2.058,0 4.274,1.309 4.274,4.182c0,3.442 -4.744,7.851 -10,13c-5.258,-5.151 -10,-9.559 -10,-13c0,-2.676 1.965,-4.193 4.28,-4.192zm0.001,-2c-3.183,0 -6.281,2.187 -6.281,6.192c0,4.661 5.57,9.427 12,15.808c6.43,-6.381 12,-11.147 12,-15.808c0,-4.011 -3.097,-6.182 -6.274,-6.182c-2.204,0 -4.446,1.042 -5.726,3.238c-1.285,-2.206 -3.522,-3.248 -5.719,-3.248z" class="" fill-opacity="1"/>
 <path fill="#45484d" fill-opacity="1" stroke="null" stroke-opacity="1" stroke-width="1" stroke-dasharray="none" stroke-linejoin="miter" stroke-linecap="butt" stroke-dashoffset="" fill-rule="nonzero" opacity="1" marker-start="" marker-mid="" marker-end="" id="svg_4" d="M 15.102040816326529 15.632653061224488 C 15.102040816326529 15.632653061224488 30.040816326530614 4.448979591836732 30.040816326530614 4.448979591836732" style="color: rgb(0, 0, 0);"/></g>
</svg>