<svg xmlns="http://www.w3.org/2000/svg" width="32" height="32"><rect id="backgroundrect" width="100%" height="100%" x="0" y="0" fill="none" stroke="none"/>
 <g style="">
  <title>background</title>
  <rect x="-1" y="-1" width="34" height="34" id="canvas_background" fill="none"/>
 </g>

 <g style="" class="currentLayer">
  <title>Layer 1</title>
  <path fill="#4a90d6" fill-opacity="1" stroke="none" stroke-width="2" stroke-dasharray="none" stroke-linejoin="round" stroke-linecap="butt" stroke-dashoffset="" fill-rule="nonzero" opacity="1" marker-start="" marker-mid="" marker-end="" id="svg_2" d="M16.326530610572313,6.08163265306122 C16.326530610572313,6.08163265306122 17.38775510036823,6.408163265306119 17.38775510036823,6.408163265306119 C17.38775510036823,6.408163265306119 18.285714284041696,6.8163265306122405 18.285714284041696,6.8163265306122405 C18.285714284041696,6.8163265306122405 19.183673467715174,7.387755102040814 19.183673467715174,7.387755102040814 C19.183673467715174,7.387755102040814 22.040816324858042,5.183673469387752 22.20408163098048,5.183673469387752 C22.367346937102916,5.183673469387752 25.55102040649067,6.489795918367342 25.55102040649067,6.489795918367342 C25.55102040649067,6.489795918367342 25.87755101873558,9.183673469387752 25.87755101873558,9.183673469387752 C25.87755101873558,9.183673469387752 25.795918365674346,12.367346938775505 25.795918365674346,12.367346938775505 C25.795918365674346,12.367346938775505 26.367346937102916,13.59183673469387 26.367346937102916,13.59183673469387 C26.367346937102916,13.59183673469387 26.693877549347825,14.816326530612239 26.693877549347825,14.816326530612239 C26.693877549347825,14.816326530612239 25.55102040649067,20.367346938775505 25.55102040649067,20.367346938775505 C25.55102040649067,20.367346938775505 22.61224489628659,24.285714285714278 22.61224489628659,24.285714285714278 C22.61224489628659,24.285714285714278 17.30612244730701,26.734693877551017 17.30612244730701,26.734693877551017 C17.30612244730701,26.734693877551017 11.673469386082509,25.836734693877546 11.673469386082509,25.836734693877546 C11.673469386082509,25.836734693877546 7.510204079960069,22.163265306122447 7.510204079960069,22.163265306122447 C7.510204079960069,22.163265306122447 6.367346937102924,14.65306122448979 6.367346937102924,14.65306122448979 C6.367346937102924,14.65306122448979 8.653061222817207,10.163265306122444 8.653061222817207,10.163265306122444 C8.653061222817207,10.163265306122444 12.571428569755987,7.469387755102037 12.571428569755987,7.469387755102037 C12.571428569755987,7.469387755102037 16.326530610572313,6.08163265306122 16.326530610572313,6.08163265306122 z" style="color: rgb(0, 0, 0);" class=""/><path d="m22.5,6c1.309,0 2.5,1.16 2.5,2.434c0,1.358 -1.044,3.303 -2.5,5.723c-1.456,-2.42 -2.5,-4.365 -2.5,-5.723c0,-1.274 1.191,-2.434 2.5,-2.434zm0,-2c-2.361,0 -4.5,1.985 -4.5,4.434c0,2.45 1.951,5.373 4.5,9.566c2.549,-4.193 4.5,-7.116 4.5,-9.566c0,-2.449 -2.139,-4.434 -4.5,-4.434zm0,6c-0.828,0 -1.5,-0.672 -1.5,-1.5s0.672,-1.5 1.5,-1.5s1.5,0.672 1.5,1.5s-0.672,1.5 -1.5,1.5zm-7.26,1.237c-0.004,-0.009 -0.289,-0.017 -0.24,-0.078l0.137,-0.085c0.012,-0.077 0.072,-0.162 -0.008,-0.304l0.047,-0.125l-0.1,0.029s0.141,-0.606 0.33,-0.332l-0.08,0.093c0.123,0.122 0.156,0.426 0.195,0.623c0.115,0.06 0.295,0.071 0.088,0.175c0.107,-0.018 -0.561,0.286 -0.648,0.161c-0.065,-0.076 0.289,-0.127 0.279,-0.157zm-0.715,-0.159c-0.078,0.078 0.002,0.128 0.082,0.094c0.113,-0.05 0.268,-0.048 0.283,-0.202l0.074,-0.091c0.031,-0.049 -0.062,-0.126 -0.102,-0.135c-0.059,-0.012 -0.1,0.064 -0.137,0.095l-0.066,0.017l-0.062,0.08l0.008,0.044l-0.08,0.098zm7,9.167l-0.734,-1.206l-0.723,-1.186c-0.73,-1.194 -1.389,-2.276 -1.961,-3.296l-0.07,0.067c-0.377,0.156 -0.943,-0.509 -1.34,-0.531c0.193,0.03 0.018,-0.49 0.018,-0.524c-0.152,-0.189 -1.123,0.021 -1.377,0.055c-0.479,0.063 -0.979,0.057 -1.346,0.355c-0.258,0.21 -0.262,0.551 -0.525,0.716c-0.17,0.106 -0.355,0.072 -0.502,0.209c-0.258,0.245 -0.553,0.607 -0.697,0.929c-0.061,0.135 0.078,0.458 0.043,0.632c-0.336,1.063 0.086,2.538 1.375,2.701c0.312,0.039 0.639,0.209 0.955,0.114c0.252,-0.076 0.475,-0.248 0.746,-0.268c0.377,-0.025 0.219,0.529 0.736,0.379c0.252,-0.074 0.365,0.172 0.365,0.359c-0.084,0.391 -0.268,0.609 0.088,0.883c0.242,0.188 0.443,0.456 0.486,0.78c0.027,0.182 0.197,0.494 -0.014,0.602c-0.15,0.075 -0.26,0.507 -0.258,0.649c0.031,0.165 0.365,0.481 0.467,0.621c0.145,0.2 0.039,0.436 0.158,0.663c0.121,0.232 0.236,0.41 0.322,0.645c0.111,0.324 0.959,-0.007 1.156,-0.006c0.674,0.004 1.014,-0.944 1.488,-1.235c0.266,-0.165 0.191,-0.616 0.51,-0.848c0.295,-0.215 0.607,-0.344 0.635,-0.741c0.021,-0.344 -0.258,-1.062 -0.104,-1.353l0.103,-0.165zm-7.302,-7.76c0.041,0.172 -0.119,0.645 -0.154,0.795c-0.031,0.138 0.443,0.226 0.416,0.295c0.004,-0.008 0.641,-0.22 0.705,-0.275l0.143,-0.323c0.121,-0.081 0.248,-0.146 0.385,-0.196l0.164,-0.285c0.055,-0.021 0.709,-0.123 0.756,-0.101c0.164,0.075 0.469,0.389 0.582,0.531l0.041,0.032c-0.326,-0.67 -0.59,-1.314 -0.795,-1.942l-0.084,0.036c-0.221,0 -0.527,0.251 -0.662,0.405c-0.096,0.104 -0.67,0.337 -0.732,0.33c0.33,0.035 0.314,0.276 0.287,0.482c-0.068,0.476 -1.095,0.035 -1.052,0.216zm10.904,5.049c-0.277,4.807 -4.252,8.623 -9.129,8.623c-2.604,0 -4.951,-1.086 -6.619,-2.83c-0.197,-0.208 -0.346,-0.7 -0.02,-0.9l0.332,-0.085c0.258,-0.22 -0.242,-1.111 -0.045,-1.254c0.617,-0.441 0.324,-0.982 -0.055,-1.429c-0.16,-0.19 -1.043,-1.1 -1.143,-0.937c0.074,-0.249 -0.16,-0.85 -0.301,-1.087c-0.24,-0.398 -0.553,-0.643 -0.68,-1.081c-0.047,-0.174 -0.047,-0.703 -0.151,-0.826c-0.041,-0.05 -0.359,-0.185 -0.348,-0.257c0.305,-1.82 1.148,-3.458 2.365,-4.751l0.819,-0.33c0.516,-0.773 0.545,-0.173 1.008,-0.375c0.154,0 0.332,-0.634 0.496,-0.734c0.289,-0.185 0.068,-0.185 0.016,-0.27c-0.113,-0.184 2.41,-1.103 2.453,-0.938c0.033,0.14 -1.25,0.809 -1.109,0.788c-0.325,0.043 -0.387,0.627 -0.327,0.625c0.162,-0.005 1.182,-0.774 1.656,-0.61c0.467,0.161 1.301,-0.37 1.627,-0.64l0.042,-0.039c0.029,-0.761 0.195,-1.494 0.48,-2.172l-0.494,-0.025c-6.074,0 -11,4.925 -11,11s4.926,11 11,11s11,-4.925 11,-11c0,-0.764 -0.078,-1.509 -0.227,-2.229c-0.49,0.864 -1.043,1.779 -1.646,2.763z" id="svg_1" fill="#7dd87d" stroke="null" class="" fill-opacity="1"/>
 <path fill="#4a90d6" fill-opacity="1" stroke="#222222" stroke-opacity="1" stroke-width="2" stroke-dasharray="none" stroke-linejoin="round" stroke-linecap="butt" stroke-dashoffset="" fill-rule="nonzero" opacity="1" marker-start="" marker-mid="" marker-end="" id="svg_4" d="M15.83673469387754,16.204081632653057 " style="color: rgb(0, 0, 0);"/></g>
</svg>