<svg xmlns="http://www.w3.org/2000/svg" width="32" height="32" style=""><rect id="backgroundrect" width="100%" height="100%" x="0" y="0" fill="none" stroke="none"/>

 <g style="">
  <title>background</title>
  <rect fill="none" id="canvas_background" height="34" width="34" y="-1" x="-1"/>
 </g>
 <g style="" class="currentLayer">
  <title>Layer 1</title>
  <path fill="#f4f486" fill-opacity="1" stroke="none" stroke-opacity="1" stroke-width="1" stroke-dasharray="none" stroke-linejoin="miter" stroke-linecap="butt" stroke-dashoffset="" fill-rule="nonzero" opacity="1" marker-start="" marker-mid="" marker-end="" id="svg_2" d="M 8.08163265306122 26.571428571428573 C 8.08163265306122 26.571428571428573 7.9183673469387665 18.734693877551017 7.9183673469387665 18.734693877551017 C 7.9183673469387665 18.734693877551017 15.999999999999993 11.55102040816326 15.999999999999993 11.55102040816326 C 15.999999999999993 11.55102040816326 23.83673469387754 18.816326530612237 23.83673469387754 18.816326530612237 C 23.83673469387754 18.816326530612237 23.75510204081632 26.244897959183668 23.75510204081632 26.244897959183668 C 23.75510204081632 26.244897959183668 8.08163265306122 26.571428571428573 8.08163265306122 26.571428571428573 z" style="color: rgb(0, 0, 0);" class=""/><path id="svg_1" fill="#b2603a" d="m16,12.685l7,6.514l0,6.301l-14,0l0,-6.301l7,-6.514zm0,-2.732l-9,8.375l0,9.172l18,0l0,-9.172l-9,-8.375zm2,14.547l-4,0l0,-6l4,0l0,6zm10,-8.852l-1.361,1.465l-10.639,-9.883l-10.639,9.868l-1.361,-1.465l12,-11.133l12,11.148z" class="" fill-opacity="1"/>
 </g>
</svg>