<svg xmlns="http://www.w3.org/2000/svg" width="32" height="32" style=""><rect id="backgroundrect" width="100%" height="100%" x="0" y="0" fill="none" stroke="none"/>

 <g style="">
  <title>background</title>
  <rect fill="none" id="canvas_background" height="34" width="34" y="-1" x="-1"/>
 </g>
 <g style="" class="currentLayer">
  <title>Layer 1</title>
  <path fill="#7474f2" fill-opacity="1" stroke="none" stroke-opacity="1" stroke-width="1" stroke-dasharray="none" stroke-linejoin="miter" stroke-linecap="butt" stroke-dashoffset="" fill-rule="nonzero" opacity="1" marker-start="" marker-mid="" marker-end="" id="svg_2" d="M10.025972850600517,10.848483615469277 C10.025972850600517,10.848483615469277 6.909089785189103,13.619046340279416 6.909089785189103,13.619046340279416 C6.909089785189103,13.619046340279416 5.090907997032453,17.601730257193992 5.090907997032453,17.601730257193992 C5.090907997032453,17.601730257193992 6.129869018836253,19.333331960200326 6.129869018836253,19.333331960200326 C6.129869018836253,19.333331960200326 8.987011828796717,21.844154429559516 8.987011828796717,21.844154429559516 C8.987011828796717,21.844154429559516 11.84415463875717,20.805193407755716 11.84415463875717,20.805193407755716 C11.84415463875717,20.805193407755716 15.740258470521418,20.372292982004133 15.740258470521418,20.372292982004133 C15.740258470521418,20.372292982004133 19.549782217135366,20.112552726553183 19.549782217135366,20.112552726553183 C19.549782217135366,20.112552726553183 21.108223749841066,22.103894685010467 21.108223749841066,22.103894685010467 C21.108223749841066,22.103894685010467 24.05194664495183,20.632033237455083 24.05194664495183,20.632033237455083 C24.05194664495183,20.632033237455083 26.56276911431103,18.121210768095892 26.56276911431103,18.121210768095892 C26.56276911431103,18.121210768095892 26.56276911431103,16.216448894788925 26.56276911431103,16.216448894788925 C26.56276911431103,16.216448894788925 21.02164366469075,13.619046340279416 21.02164366469075,13.619046340279416 C21.02164366469075,13.619046340279416 17.38528008837745,10.76190353031896 17.38528008837745,10.76190353031896 C17.38528008837745,10.76190353031896 10.025972850600517,10.848483615469277 10.025972850600517,10.848483615469277 z" style="color: rgb(0, 0, 0);" class=""/><path id="svg_1" fill="#6161b5" d="m15,15l0,-3l1.247,0c0.882,0 1.235,0.297 1.828,0.909c0.452,0.465 1.925,2.091 1.925,2.091l-5,0zm-1,-3l-2.243,0c-0.688,0 -1.051,0.222 -1.377,0.581c-0.316,0.348 -0.895,0.948 -1.506,1.671c1.719,0.644 4.055,0.748 5.126,0.748l0,-3zm14,5.161c0,-2.823 -2.03,-3.41 -2.794,-3.631c-1.142,-0.331 -1.654,-0.475 -3.031,-0.794c-0.55,-0.545 -2.052,-2.036 -2.389,-2.376l-0.089,-0.091c-0.666,-0.679 -1.421,-1.269 -3.172,-1.269l-7.64,0c-0.547,0 -0.791,0.456 -0.254,0.944c-0.534,0.462 -1.944,1.706 -2.34,2.108c-1.384,1.402 -2.291,2.48 -2.291,4.603c0,2.461 1.361,4.258 3.179,4.332c0.41,1.169 1.512,2.013 2.821,2.013c1.304,0 2.403,-0.838 2.816,-2l6.367,0c0.413,1.162 1.512,2 2.816,2c1.308,0 2.409,-0.843 2.82,-2.01c1.934,-0.056 3.181,-1.505 3.181,-3.829zm-18,4.039c-0.662,0 -1.2,-0.538 -1.2,-1.2s0.538,-1.2 1.2,-1.2s1.2,0.538 1.2,1.2s-0.538,1.2 -1.2,1.2zm12,0c-0.662,0 -1.2,-0.538 -1.2,-1.2s0.538,-1.2 1.2,-1.2s1.2,0.538 1.2,1.2s-0.538,1.2 -1.2,1.2zm2.832,-2.15c-0.399,-1.188 -1.509,-2.05 -2.832,-2.05c-1.327,0 -2.44,0.868 -2.836,2.062l-6.328,0c-0.396,-1.194 -1.509,-2.062 -2.836,-2.062c-1.319,0 -2.426,0.857 -2.829,2.04c-0.586,-0.114 -1.171,-1.037 -1.171,-2.385c0,-1.335 0.47,-1.938 1.714,-3.199c0.725,-0.735 1.31,-1.209 2.263,-2.026c0.34,-0.291 0.774,-0.432 1.222,-0.43l5.173,0c1.22,0 1.577,0.385 2.116,0.892c0.419,0.393 2.682,2.665 2.682,2.665s2.303,0.554 3.48,0.895c0.84,0.243 1.35,0.479 1.35,1.71c0,1.196 -0.396,1.826 -1.168,1.888z" class="" fill-opacity="1" stroke="none"/>
 <path fill="#e7e767" fill-opacity="1" stroke="none" stroke-opacity="1" stroke-width="1" stroke-dasharray="none" stroke-linejoin="miter" stroke-linecap="butt" stroke-dashoffset="" fill-rule="nonzero" opacity="1" marker-start="" marker-mid="" marker-end="" id="svg_4" d="M20.155842766107945,14.658007359062827 " style="color: rgb(0, 0, 0);"/></g>
</svg>