<svg xmlns="http://www.w3.org/2000/svg" width="32" height="32" style=""><rect id="backgroundrect" width="100%" height="100%" x="0" y="0" fill="none" stroke="none"/>

 <g style="">
  <title>background</title>
  <rect fill="none" id="canvas_background" height="34" width="34" y="-1" x="-1"/>
 </g>
 <g style="" class="currentLayer">
  <title>Layer 1</title>
  <path fill="#ffe0bd" fill-opacity="1" stroke="none" stroke-opacity="1" stroke-width="1" stroke-dasharray="none" stroke-linejoin="miter" stroke-linecap="butt" stroke-dashoffset="" fill-rule="nonzero" opacity="1" marker-start="" marker-mid="" marker-end="" id="svg_2" d="M 15.83673469387754 5.0204081632653015 C 15.83673469387754 5.0204081632653015 12.408163265306108 6.653061224489794 12.408163265306108 6.653061224489794 C 12.408163265306108 6.653061224489794 10.938775510204074 11.469387755102035 10.938775510204074 11.469387755102035 C 10.938775510204074 11.469387755102035 12.816326530612239 17.265306122448976 12.816326530612239 17.265306122448976 C 12.816326530612239 17.265306122448976 12.979591836734691 20.857142857142854 12.979591836734691 20.857142857142854 C 12.979591836734691 20.857142857142854 5.387755102040806 23.959183673469383 5.387755102040806 23.959183673469383 C 5.387755102040806 23.959183673469383 5.959183673469383 27.959183673469383 5.959183673469383 27.959183673469383 C 5.959183673469383 27.959183673469383 27.673469387755098 27.959183673469383 27.673469387755098 27.959183673469383 C 27.673469387755098 27.959183673469383 26.367346938775505 23.714285714285708 26.367346938775505 23.714285714285708 C 26.367346938775505 23.714285714285708 23.75510204081632 23.061224489795915 23.75510204081632 23.061224489795915 C 23.75510204081632 23.061224489795915 20.571428571428562 22.571428571428573 20.571428571428562 22.571428571428573 C 20.571428571428562 22.571428571428573 18.6938775510204 19.795918367346935 18.6938775510204 19.795918367346935 C 18.6938775510204 19.795918367346935 19.10204081632653 16.530612244897952 19.10204081632653 16.530612244897952 C 19.10204081632653 16.530612244897952 20.816326530612237 11.714285714285708 20.816326530612237 11.714285714285708 C 20.816326530612237 11.714285714285708 20.734693877551017 8.122448979591834 20.734693877551017 8.122448979591834 C 20.734693877551017 8.122448979591834 18.530612244897945 5.3469387755102 18.530612244897945 5.3469387755102 C 18.530612244897945 5.3469387755102 15.83673469387754 5.0204081632653015 15.83673469387754 5.0204081632653015 z" style="color: rgb(0, 0, 0);" class=""/><path id="svg_1" fill="#919191" d="m27.995,28l-1.995,0c0,-3.104 0.119,-3.55 -1.761,-3.986c-2.877,-0.664 -5.594,-1.291 -6.584,-3.458c-0.361,-0.791 -0.601,-2.095 0.31,-3.814c2.042,-3.857 2.554,-7.165 1.403,-9.076c-1.341,-2.229 -5.413,-2.241 -6.766,0.034c-1.154,1.937 -0.635,5.227 1.424,9.025c0.93,1.712 0.697,3.02 0.338,3.815c-0.982,2.178 -3.675,2.799 -6.525,3.456c-1.964,0.454 -1.839,0.87 -1.839,4.004l-1.995,0l-0.005,-1.241c0,-2.52 0.199,-3.975 3.178,-4.663c3.365,-0.777 6.688,-1.473 5.09,-4.418c-4.733,-8.729 -1.35,-13.678 3.732,-13.678c4.983,0 8.451,4.766 3.732,13.678c-1.551,2.928 1.65,3.624 5.09,4.418c2.979,0.688 3.178,2.143 3.178,4.663l-0.005,1.241zm-13.478,-6l0.91,2l1.164,0l0.92,-2l-2.994,0zm2.995,6l-0.704,-3l-1.615,0l-0.704,3l3.023,0z" class="" fill-opacity="1"/>
 </g>
</svg>